<mxfile host="www.draw.io" modified="2020-01-07T10:16:35.560Z" agent="Mozilla/5.0 (Macintosh; Intel Mac OS X 10_14_3) AppleWebKit/537.36 (KHTML, like Gecko) Chrome/79.0.3945.88 Safari/537.36" etag="930KBITRaWmVsFX6P9ZA" version="12.4.9" type="github">
  <diagram id="4Y-oMkJOqKwf163alep2" name="Page-1">
    <mxGraphModel dx="2471" dy="773" grid="1" gridSize="10" guides="1" tooltips="1" connect="1" arrows="1" fold="1" page="1" pageScale="1" pageWidth="826" pageHeight="1169" math="0" shadow="0">
      <root>
        <mxCell id="0"/>
        <mxCell id="1" parent="0"/>
        <mxCell id="vEGenpcwU0fsUzV5uyNZ-5" style="edgeStyle=orthogonalEdgeStyle;rounded=0;orthogonalLoop=1;jettySize=auto;html=1;entryX=0.5;entryY=0;entryDx=0;entryDy=0;entryPerimeter=0;" edge="1" parent="1" source="vEGenpcwU0fsUzV5uyNZ-3" target="vEGenpcwU0fsUzV5uyNZ-7">
          <mxGeometry relative="1" as="geometry">
            <mxPoint x="270" y="140" as="targetPoint"/>
          </mxGeometry>
        </mxCell>
        <mxCell id="vEGenpcwU0fsUzV5uyNZ-11" value="&lt;font style=&quot;font-size: 24px&quot;&gt;否&lt;/font&gt;" style="text;html=1;align=center;verticalAlign=middle;resizable=0;points=[];labelBackgroundColor=#ffffff;" vertex="1" connectable="0" parent="vEGenpcwU0fsUzV5uyNZ-5">
          <mxGeometry x="-0.2" y="1" relative="1" as="geometry">
            <mxPoint as="offset"/>
          </mxGeometry>
        </mxCell>
        <mxCell id="vEGenpcwU0fsUzV5uyNZ-8" style="edgeStyle=orthogonalEdgeStyle;rounded=0;orthogonalLoop=1;jettySize=auto;html=1;entryX=0.5;entryY=0;entryDx=0;entryDy=0;" edge="1" parent="1" source="vEGenpcwU0fsUzV5uyNZ-3" target="vEGenpcwU0fsUzV5uyNZ-6">
          <mxGeometry relative="1" as="geometry"/>
        </mxCell>
        <mxCell id="vEGenpcwU0fsUzV5uyNZ-9" value="&lt;font style=&quot;font-size: 24px&quot;&gt;有&lt;/font&gt;" style="text;html=1;align=center;verticalAlign=middle;resizable=0;points=[];labelBackgroundColor=#ffffff;" vertex="1" connectable="0" parent="vEGenpcwU0fsUzV5uyNZ-8">
          <mxGeometry x="-0.2255" y="-4" relative="1" as="geometry">
            <mxPoint as="offset"/>
          </mxGeometry>
        </mxCell>
        <mxCell id="vEGenpcwU0fsUzV5uyNZ-3" value="当前是否有正在变价的批次&lt;br&gt;状态值为（3、4、5）" style="strokeWidth=2;html=1;shape=mxgraph.flowchart.decision;whiteSpace=wrap;" vertex="1" parent="1">
          <mxGeometry x="160" y="20" width="220" height="70" as="geometry"/>
        </mxCell>
        <mxCell id="vEGenpcwU0fsUzV5uyNZ-4" value="&lt;font style=&quot;font-size: 24px&quot;&gt;状态值&lt;br&gt;&lt;br&gt;&lt;/font&gt;&lt;div&gt;&lt;font size=&quot;3&quot;&gt;1:工单创建&lt;/font&gt;&lt;/div&gt;&lt;div&gt;&lt;font size=&quot;3&quot;&gt;2:数据导入完成&lt;/font&gt;&lt;/div&gt;&lt;div&gt;&lt;font size=&quot;3&quot;&gt;3:大数据开始计算&lt;/font&gt;&lt;/div&gt;&lt;div&gt;&lt;font size=&quot;3&quot;&gt;4:大数据计算完成&lt;/font&gt;&lt;/div&gt;&lt;div&gt;&lt;font size=&quot;3&quot;&gt;5:SSC开始变价&lt;/font&gt;&lt;/div&gt;&lt;div&gt;&lt;font size=&quot;3&quot;&gt;6:SSC变价完成&lt;/font&gt;&lt;/div&gt;&lt;div&gt;&lt;font size=&quot;3&quot;&gt;7:取消变价&lt;/font&gt;&lt;/div&gt;&lt;div&gt;&lt;font size=&quot;3&quot;&gt;8:报错,变价失败&lt;/font&gt;&lt;/div&gt;" style="text;html=1;strokeColor=none;fillColor=none;align=center;verticalAlign=middle;whiteSpace=wrap;rounded=0;" vertex="1" parent="1">
          <mxGeometry x="440" y="180" width="240" height="305" as="geometry"/>
        </mxCell>
        <mxCell id="vEGenpcwU0fsUzV5uyNZ-6" value="结束本次轮询" style="rounded=1;whiteSpace=wrap;html=1;" vertex="1" parent="1">
          <mxGeometry x="-70" y="155" width="120" height="60" as="geometry"/>
        </mxCell>
        <mxCell id="vEGenpcwU0fsUzV5uyNZ-12" value="&lt;font style=&quot;font-size: 24px&quot;&gt;否&lt;/font&gt;" style="edgeStyle=orthogonalEdgeStyle;rounded=0;orthogonalLoop=1;jettySize=auto;html=1;" edge="1" parent="1" source="vEGenpcwU0fsUzV5uyNZ-7" target="vEGenpcwU0fsUzV5uyNZ-6">
          <mxGeometry relative="1" as="geometry"/>
        </mxCell>
        <mxCell id="vEGenpcwU0fsUzV5uyNZ-13" style="edgeStyle=orthogonalEdgeStyle;rounded=0;orthogonalLoop=1;jettySize=auto;html=1;entryX=0.5;entryY=0;entryDx=0;entryDy=0;" edge="1" parent="1" source="vEGenpcwU0fsUzV5uyNZ-7" target="vEGenpcwU0fsUzV5uyNZ-14">
          <mxGeometry relative="1" as="geometry">
            <mxPoint x="270" y="280" as="targetPoint"/>
          </mxGeometry>
        </mxCell>
        <mxCell id="vEGenpcwU0fsUzV5uyNZ-15" value="&lt;font style=&quot;font-size: 24px&quot;&gt;有&lt;/font&gt;" style="text;html=1;align=center;verticalAlign=middle;resizable=0;points=[];labelBackgroundColor=#ffffff;" vertex="1" connectable="0" parent="vEGenpcwU0fsUzV5uyNZ-13">
          <mxGeometry x="-0.2333" y="1" relative="1" as="geometry">
            <mxPoint as="offset"/>
          </mxGeometry>
        </mxCell>
        <mxCell id="vEGenpcwU0fsUzV5uyNZ-7" value="当前是否有新增的变价批次&lt;br&gt;状态值为 2" style="strokeWidth=2;html=1;shape=mxgraph.flowchart.decision;whiteSpace=wrap;" vertex="1" parent="1">
          <mxGeometry x="160" y="150" width="220" height="70" as="geometry"/>
        </mxCell>
        <mxCell id="vEGenpcwU0fsUzV5uyNZ-17" style="edgeStyle=orthogonalEdgeStyle;rounded=0;orthogonalLoop=1;jettySize=auto;html=1;" edge="1" parent="1" source="vEGenpcwU0fsUzV5uyNZ-14" target="vEGenpcwU0fsUzV5uyNZ-16">
          <mxGeometry relative="1" as="geometry"/>
        </mxCell>
        <mxCell id="vEGenpcwU0fsUzV5uyNZ-14" value="如果有多条待变价的批次号，取批次号较小的那条数据。&lt;br&gt;取出对应的 是否欧洲自营、一级场景、三级场景" style="rounded=1;whiteSpace=wrap;html=1;" vertex="1" parent="1">
          <mxGeometry x="115" y="270" width="310" height="60" as="geometry"/>
        </mxCell>
        <mxCell id="vEGenpcwU0fsUzV5uyNZ-19" style="edgeStyle=orthogonalEdgeStyle;rounded=0;orthogonalLoop=1;jettySize=auto;html=1;entryX=0.5;entryY=0;entryDx=0;entryDy=0;entryPerimeter=0;" edge="1" parent="1" source="vEGenpcwU0fsUzV5uyNZ-16" target="vEGenpcwU0fsUzV5uyNZ-18">
          <mxGeometry relative="1" as="geometry"/>
        </mxCell>
        <mxCell id="vEGenpcwU0fsUzV5uyNZ-16" value="选择对应的ETL逻辑&lt;br&gt;并调用接口将状态更新为3" style="rounded=1;whiteSpace=wrap;html=1;" vertex="1" parent="1">
          <mxGeometry x="185" y="370" width="170" height="60" as="geometry"/>
        </mxCell>
        <mxCell id="vEGenpcwU0fsUzV5uyNZ-20" style="edgeStyle=orthogonalEdgeStyle;rounded=0;orthogonalLoop=1;jettySize=auto;html=1;entryX=1;entryY=0.5;entryDx=0;entryDy=0;entryPerimeter=0;" edge="1" parent="1" source="vEGenpcwU0fsUzV5uyNZ-18" target="vEGenpcwU0fsUzV5uyNZ-27">
          <mxGeometry relative="1" as="geometry">
            <mxPoint x="270" y="590" as="targetPoint"/>
          </mxGeometry>
        </mxCell>
        <mxCell id="vEGenpcwU0fsUzV5uyNZ-21" value="&lt;font style=&quot;font-size: 24px&quot;&gt;是&lt;/font&gt;" style="text;html=1;align=center;verticalAlign=middle;resizable=0;points=[];labelBackgroundColor=#ffffff;" vertex="1" connectable="0" parent="vEGenpcwU0fsUzV5uyNZ-20">
          <mxGeometry x="-0.16" y="-1" relative="1" as="geometry">
            <mxPoint as="offset"/>
          </mxGeometry>
        </mxCell>
        <mxCell id="vEGenpcwU0fsUzV5uyNZ-35" value="&lt;font style=&quot;font-size: 24px&quot;&gt;否&lt;/font&gt;" style="edgeStyle=orthogonalEdgeStyle;rounded=0;orthogonalLoop=1;jettySize=auto;html=1;" edge="1" parent="1" source="vEGenpcwU0fsUzV5uyNZ-18">
          <mxGeometry relative="1" as="geometry">
            <mxPoint x="270" y="610" as="targetPoint"/>
          </mxGeometry>
        </mxCell>
        <mxCell id="vEGenpcwU0fsUzV5uyNZ-18" value="大数据ETL逻辑执行成功" style="strokeWidth=2;html=1;shape=mxgraph.flowchart.decision;whiteSpace=wrap;" vertex="1" parent="1">
          <mxGeometry x="160" y="470" width="220" height="70" as="geometry"/>
        </mxCell>
        <mxCell id="vEGenpcwU0fsUzV5uyNZ-24" style="edgeStyle=orthogonalEdgeStyle;rounded=0;orthogonalLoop=1;jettySize=auto;html=1;entryX=0.5;entryY=1;entryDx=0;entryDy=0;entryPerimeter=0;" edge="1" parent="1" source="vEGenpcwU0fsUzV5uyNZ-22" target="vEGenpcwU0fsUzV5uyNZ-23">
          <mxGeometry relative="1" as="geometry"/>
        </mxCell>
        <mxCell id="vEGenpcwU0fsUzV5uyNZ-22" value="调用接口将状态更新为4&lt;br&gt;并调用中台接口进行数据传输" style="rounded=1;whiteSpace=wrap;html=1;" vertex="1" parent="1">
          <mxGeometry x="-370" y="475" width="170" height="60" as="geometry"/>
        </mxCell>
        <mxCell id="vEGenpcwU0fsUzV5uyNZ-26" style="edgeStyle=orthogonalEdgeStyle;rounded=0;orthogonalLoop=1;jettySize=auto;html=1;entryX=0.5;entryY=1;entryDx=0;entryDy=0;" edge="1" parent="1" source="vEGenpcwU0fsUzV5uyNZ-23" target="vEGenpcwU0fsUzV5uyNZ-25">
          <mxGeometry relative="1" as="geometry"/>
        </mxCell>
        <mxCell id="vEGenpcwU0fsUzV5uyNZ-34" value="&lt;font style=&quot;font-size: 24px&quot;&gt;是&lt;/font&gt;" style="text;html=1;align=center;verticalAlign=middle;resizable=0;points=[];labelBackgroundColor=#ffffff;" vertex="1" connectable="0" parent="vEGenpcwU0fsUzV5uyNZ-26">
          <mxGeometry x="0.0368" y="1" relative="1" as="geometry">
            <mxPoint as="offset"/>
          </mxGeometry>
        </mxCell>
        <mxCell id="vEGenpcwU0fsUzV5uyNZ-42" style="edgeStyle=orthogonalEdgeStyle;rounded=0;orthogonalLoop=1;jettySize=auto;html=1;entryX=0.5;entryY=1;entryDx=0;entryDy=0;" edge="1" parent="1" source="vEGenpcwU0fsUzV5uyNZ-23" target="vEGenpcwU0fsUzV5uyNZ-38">
          <mxGeometry relative="1" as="geometry">
            <mxPoint x="-120" y="320" as="targetPoint"/>
            <Array as="points">
              <mxPoint x="-135" y="385"/>
            </Array>
          </mxGeometry>
        </mxCell>
        <mxCell id="vEGenpcwU0fsUzV5uyNZ-43" value="&lt;font style=&quot;font-size: 24px&quot;&gt;否&lt;/font&gt;" style="text;html=1;align=center;verticalAlign=middle;resizable=0;points=[];labelBackgroundColor=#ffffff;" vertex="1" connectable="0" parent="vEGenpcwU0fsUzV5uyNZ-42">
          <mxGeometry x="0.2754" relative="1" as="geometry">
            <mxPoint as="offset"/>
          </mxGeometry>
        </mxCell>
        <mxCell id="vEGenpcwU0fsUzV5uyNZ-23" value="给中台传输数据执行成功" style="strokeWidth=2;html=1;shape=mxgraph.flowchart.decision;whiteSpace=wrap;" vertex="1" parent="1">
          <mxGeometry x="-395" y="350" width="220" height="70" as="geometry"/>
        </mxCell>
        <mxCell id="vEGenpcwU0fsUzV5uyNZ-25" value="调用接口将状态更新为5" style="rounded=1;whiteSpace=wrap;html=1;" vertex="1" parent="1">
          <mxGeometry x="-370" y="155" width="170" height="60" as="geometry"/>
        </mxCell>
        <mxCell id="vEGenpcwU0fsUzV5uyNZ-28" style="edgeStyle=orthogonalEdgeStyle;rounded=0;orthogonalLoop=1;jettySize=auto;html=1;entryX=0.5;entryY=1;entryDx=0;entryDy=0;" edge="1" parent="1" source="vEGenpcwU0fsUzV5uyNZ-27" target="vEGenpcwU0fsUzV5uyNZ-6">
          <mxGeometry relative="1" as="geometry"/>
        </mxCell>
        <mxCell id="vEGenpcwU0fsUzV5uyNZ-29" value="&lt;font style=&quot;font-size: 24px&quot;&gt;是&lt;/font&gt;" style="text;html=1;align=center;verticalAlign=middle;resizable=0;points=[];labelBackgroundColor=#ffffff;" vertex="1" connectable="0" parent="vEGenpcwU0fsUzV5uyNZ-28">
          <mxGeometry x="0.0802" relative="1" as="geometry">
            <mxPoint as="offset"/>
          </mxGeometry>
        </mxCell>
        <mxCell id="vEGenpcwU0fsUzV5uyNZ-30" style="edgeStyle=orthogonalEdgeStyle;rounded=0;orthogonalLoop=1;jettySize=auto;html=1;" edge="1" parent="1" source="vEGenpcwU0fsUzV5uyNZ-27" target="vEGenpcwU0fsUzV5uyNZ-22">
          <mxGeometry relative="1" as="geometry"/>
        </mxCell>
        <mxCell id="vEGenpcwU0fsUzV5uyNZ-31" value="&lt;font style=&quot;font-size: 24px&quot;&gt;否&lt;/font&gt;" style="text;html=1;align=center;verticalAlign=middle;resizable=0;points=[];labelBackgroundColor=#ffffff;" vertex="1" connectable="0" parent="vEGenpcwU0fsUzV5uyNZ-30">
          <mxGeometry x="0.0036" y="-3" relative="1" as="geometry">
            <mxPoint as="offset"/>
          </mxGeometry>
        </mxCell>
        <mxCell id="vEGenpcwU0fsUzV5uyNZ-27" value="当前批次状态是否被运营取消&lt;br&gt;状态值为7" style="strokeWidth=2;html=1;shape=mxgraph.flowchart.decision;whiteSpace=wrap;" vertex="1" parent="1">
          <mxGeometry x="-120" y="470" width="220" height="70" as="geometry"/>
        </mxCell>
        <mxCell id="vEGenpcwU0fsUzV5uyNZ-33" style="edgeStyle=orthogonalEdgeStyle;rounded=0;orthogonalLoop=1;jettySize=auto;html=1;entryX=1;entryY=0.5;entryDx=0;entryDy=0;entryPerimeter=0;" edge="1" parent="1" source="vEGenpcwU0fsUzV5uyNZ-32" target="vEGenpcwU0fsUzV5uyNZ-3">
          <mxGeometry relative="1" as="geometry"/>
        </mxCell>
        <mxCell id="vEGenpcwU0fsUzV5uyNZ-32" value="&lt;font style=&quot;font-size: 24px&quot;&gt;开始&lt;/font&gt;" style="rounded=1;whiteSpace=wrap;html=1;" vertex="1" parent="1">
          <mxGeometry x="500" y="25" width="120" height="60" as="geometry"/>
        </mxCell>
        <mxCell id="vEGenpcwU0fsUzV5uyNZ-37" style="edgeStyle=orthogonalEdgeStyle;rounded=0;orthogonalLoop=1;jettySize=auto;html=1;entryX=0.5;entryY=1;entryDx=0;entryDy=0;entryPerimeter=0;" edge="1" parent="1" source="vEGenpcwU0fsUzV5uyNZ-36" target="vEGenpcwU0fsUzV5uyNZ-27">
          <mxGeometry relative="1" as="geometry"/>
        </mxCell>
        <mxCell id="vEGenpcwU0fsUzV5uyNZ-36" value="大数据收到报警&lt;br&gt;并且手动处理&lt;br&gt;直到任务运行成功" style="rounded=1;whiteSpace=wrap;html=1;" vertex="1" parent="1">
          <mxGeometry x="185" y="610" width="170" height="60" as="geometry"/>
        </mxCell>
        <mxCell id="vEGenpcwU0fsUzV5uyNZ-44" style="edgeStyle=orthogonalEdgeStyle;rounded=0;orthogonalLoop=1;jettySize=auto;html=1;entryX=0;entryY=0.5;entryDx=0;entryDy=0;" edge="1" parent="1" source="vEGenpcwU0fsUzV5uyNZ-38" target="vEGenpcwU0fsUzV5uyNZ-6">
          <mxGeometry relative="1" as="geometry"/>
        </mxCell>
        <mxCell id="vEGenpcwU0fsUzV5uyNZ-38" value="调用接口将状态更新为8&lt;br&gt;并通知中台接口出错" style="rounded=1;whiteSpace=wrap;html=1;" vertex="1" parent="1">
          <mxGeometry x="-220" y="250" width="170" height="60" as="geometry"/>
        </mxCell>
        <mxCell id="vEGenpcwU0fsUzV5uyNZ-40" value="" style="endArrow=classic;html=1;" edge="1" parent="1">
          <mxGeometry width="50" height="50" relative="1" as="geometry">
            <mxPoint x="-400" y="740" as="sourcePoint"/>
            <mxPoint x="-385.0000000000002" y="725" as="targetPoint"/>
          </mxGeometry>
        </mxCell>
      </root>
    </mxGraphModel>
  </diagram>
</mxfile>
